<?xml version="1.0" encoding="UTF-8" standalone="no"?>
<!-- Svg Vector Icons : http://www.onlinewebfonts.com/icon -->

<svg
   version="1.1"
   x="0px"
   y="0px"
   viewBox="0 0 1000 1000"
   enable-background="new 0 0 1000 1000"
   xml:space="preserve"
   id="svg16"
   sodipodi:docname="c9c1ba58aeda407da649cd1c5dd0f526.svg"
   inkscape:version="1.2 (dc2aedaf03, 2022-05-15)"
   xmlns:inkscape="http://www.inkscape.org/namespaces/inkscape"
   xmlns:sodipodi="http://sodipodi.sourceforge.net/DTD/sodipodi-0.dtd"
   xmlns="http://www.w3.org/2000/svg"
   xmlns:svg="http://www.w3.org/2000/svg"><defs
   id="defs20" /><sodipodi:namedview
   id="namedview18"
   pagecolor="#ffffff"
   bordercolor="#999999"
   borderopacity="1"
   inkscape:showpageshadow="0"
   inkscape:pageopacity="0"
   inkscape:pagecheckerboard="0"
   inkscape:deskcolor="#d1d1d1"
   showgrid="false"
   inkscape:zoom="0.236"
   inkscape:cx="368.64407"
   inkscape:cy="502.11864"
   inkscape:window-width="1920"
   inkscape:window-height="1001"
   inkscape:window-x="-9"
   inkscape:window-y="-9"
   inkscape:window-maximized="1"
   inkscape:current-layer="svg16" />
<metadata
   id="metadata2"> Svg Vector Icons : http://www.onlinewebfonts.com/icon </metadata>
<g
   id="g14"
   style="fill:#1707c4;fill-opacity:1"><g
     transform="translate(0.000000,511.000000) scale(0.100000,-0.100000)"
     id="g12"
     style="fill:#1707c4;fill-opacity:1"><path
       d="M2363.6,3139.4c-212.7-74.8-339.2-207-402.5-423.6c-78.6-270.2,57.5-569.3,316.3-695.8l128.4-63.3h2597.1H7600l107.3,49.8c226.2,105.4,352.7,306.7,352.7,553.9c-1.9,247.3-115,435.1-331.6,540.5l-128.4,63.2l-2568.3,3.8C2601.3,3172,2457.6,3172,2363.6,3139.4z"
       id="path4"
       style="fill:#1707c4;fill-opacity:1" /><path
       d="M523.6,686.1c-212.7-74.8-339.2-207-402.5-423.6c-40.2-139.9-23-283.7,51.8-435.1c63.2-132.3,151.4-212.8,300.9-281.8l92-42.2h1983.8h1983.8l107.3,49.8c224.2,105.4,352.7,306.7,352.7,553.9c0,241.5-118.8,433.2-341.2,552l-99.7,51.8l-1964.6,3.8C738.3,718.6,617.5,718.6,523.6,686.1z"
       id="path6"
       style="fill:#1707c4;fill-opacity:1" /><path
       d="M6697.2,703.3c-92-23-254.9-118.8-306.7-180.2c-107.4-126.5-149.5-243.4-149.5-406.3c-1.9-136.1,5.8-168.7,61.3-281.8c69-139.9,151.4-218.5,304.8-289.4l92-42.2h1370.4H9440l128.4,63.2C9785-327.9,9898.1-140,9900,107.2c0,249.2-113.1,433.2-331.6,540.5L9440,711l-1341.7,3.8C7360.4,714.8,6729.8,711,6697.2,703.3z"
       id="path8"
       style="fill:#1707c4;fill-opacity:1" /><path
       d="M3017.2-1750c-90.1-23-254.9-118.8-306.7-180.2c-107.3-126.5-149.5-243.4-149.5-406.3c-1.9-136.1,5.8-168.7,61.3-281.8c69-139.9,151.4-218.5,304.8-289.4l92-42.2h2597.1h2597.1l107.3,49.8c136.1,63.3,239.6,166.8,302.9,302.9c69,147.6,69,371.8,3.8,500.2c-74.8,143.8-147.6,220.4-274.1,289.4l-120.7,65.2l-2577.9,3.8C4236.2-1738.5,3049.8-1742.4,3017.2-1750z"
       id="path10"
       style="fill:#1707c4;fill-opacity:1" /></g></g>
</svg>
